# xmcd CD database file
#
# Track frame offsets:
#	150
#	36675
#	87075
#	124725
#	157876
#	167205
#	205269
#	224319
#
# Disc length: 3422 seconds
#
# Revision: 2
# Processed by: cddbd v1.4b41PL1 Copyright (c) Steve Scherf et al.
# Submitted via: Feurio! 1.52 - http://www.feurio.com
#
DISCID=6d0d5c08
DTITLE=Syndicate - Last Moment
DYEAR=1900
DGENRE=
TTITLE0=20-th
TTITLE1=Dedication
TTITLE2=Crazy World
TTITLE3=Last Moment
TTITLE4=Gara (Intro)
TTITLE5=Gara
TTITLE6=Mirage
TTITLE7=Day Off
EXTD=
EXTT0=
EXTT1=
EXTT2=
EXTT3=
EXTT4=
EXTT5=
EXTT6=
EXTT7=
PLAYORDER=
